<?xml version="1.0"?>
<svg xmlns="http://www.w3.org/2000/svg" xmlns:xlink="http://www.w3.org/1999/xlink" xmlns:svgjs="http://svgjs.com/svgjs" version="1.1" width="512" height="512" x="0" y="0" viewBox="0 0 512 512" style="enable-background:new 0 0 512 512" xml:space="preserve" class=""><g>
<g xmlns="http://www.w3.org/2000/svg">
	<g>
		<path d="M482,363.58V316c0-49.388-15.925-96.331-46.053-135.753c-26.743-34.993-63.719-61.83-105.003-76.443    C329.795,80.007,310.077,61,286,61h-60c-24.077,0-43.795,19.007-44.944,42.804c-41.284,14.613-78.26,41.45-105.003,76.443    C45.925,219.669,30,266.612,30,316v47.58C12.541,369.772,0,386.445,0,406c0,24.813,20.187,45,45,45h422c24.813,0,45-20.187,45-45    C512,386.445,499.459,369.772,482,363.58z M60,316c0-54.091,23.106-104.728,61-140.855V226c0,8.284,6.716,15,15,15s15-6.716,15-15    v-74.383c9.452-6.034,19.477-11.298,30-15.679V256c0,8.284,6.716,15,15,15s15-6.716,15-15V114.932c0.001-0.041,0-0.082,0-0.123    V106c0-8.271,6.729-15,15-15h60c8.271,0,15,6.729,15,15v8.805c0,0.043-0.001,0.085,0,0.128V256c0,8.284,6.716,15,15,15    s15-6.716,15-15V135.938c10.523,4.382,20.548,9.646,30,15.679V226c0,8.284,6.716,15,15,15s15-6.716,15-15v-50.855    c37.894,36.127,61,86.764,61,140.855v45H60V316z M467,421H45c-8.271,0-15-6.729-15-15s6.729-15,15-15h422c8.271,0,15,6.729,15,15    S475.271,421,467,421z" fill="#ffffff" data-original="#000000" style="" class=""/>
	</g>
</g>
<g xmlns="http://www.w3.org/2000/svg">
</g>
<g xmlns="http://www.w3.org/2000/svg">
</g>
<g xmlns="http://www.w3.org/2000/svg">
</g>
<g xmlns="http://www.w3.org/2000/svg">
</g>
<g xmlns="http://www.w3.org/2000/svg">
</g>
<g xmlns="http://www.w3.org/2000/svg">
</g>
<g xmlns="http://www.w3.org/2000/svg">
</g>
<g xmlns="http://www.w3.org/2000/svg">
</g>
<g xmlns="http://www.w3.org/2000/svg">
</g>
<g xmlns="http://www.w3.org/2000/svg">
</g>
<g xmlns="http://www.w3.org/2000/svg">
</g>
<g xmlns="http://www.w3.org/2000/svg">
</g>
<g xmlns="http://www.w3.org/2000/svg">
</g>
<g xmlns="http://www.w3.org/2000/svg">
</g>
<g xmlns="http://www.w3.org/2000/svg">
</g>
</g></svg>
